:version 1.10
:name ASF
:units
  mass 1
  length 1
  angle deg
:documentation
  ASF file generated by Kaydara
:root
  axis xyz
  order  tx ty tz rx ry rz
  position 0 0 0
  orientation 0 0 0
:bonedata
  begin
    id 1
    name RightUpLegDummy
    direction -0.65628 -0.754516 0.00165102
    length 4.76918
    axis 0 0 0 xyz
  end
  begin
    id 2
    name RightUpLeg
    direction -0.145584 -0.923362 0.355256
    length 17.9961
    axis -24.7611 -13.1006 1.78531 xyz
    dof rx ry rz
  end
  begin
    id 3
    name RightLeg
    direction 0.263379 0.172355 -0.949171
    length 13.3386
    axis 89.6202 -21.1929 12.3855 xyz
    dof rx ry rz
  end
  begin
    id 4
    name RightFoot
    direction 0.224283 -0.968777 -0.105675
    length 5.86697
    axis 56.995 -39.6905 17.3365 xyz
    dof rx ry rz
  end
  begin
    id 5
    name RightToes
    direction -0.0806345 -0.9037 0.420506
    length 4.75197
    axis 146.825 -39.7828 17.6019 xyz
    dof rx ry rz
  end
  begin
    id 6
    name SpineDummy
    direction -3.39852e-014 1 9.33296e-014
    length 8.13779
    axis 0 0 0 xyz
  end
  begin
    id 7
    name Spine
    direction -0.156609 0.733703 0.661176
    length 7.14978
    axis 41.2365 5.68757 17.0844 xyz
    dof rx ry rz
  end
  begin
    id 8
    name Spine1
    direction 0 0 0
    length 0
    axis 42.8809 47.8308 -3.36039 xyz
    dof rx ry rz
  end
  begin
    id 9
    name HEadDummy
    direction 0.546431 0.701947 0.456819
    length 3.55512
    axis 42.8809 47.8308 -3.36039 xyz
  end
  begin
    id 10
    name HEad
    direction 0.23444 0.828559 0.508457
    length 7.35827
    axis 51.1864 49.2662 27.4903 xyz
    dof rx ry rz
  end
  begin
    id 11
    name LeftShoulder1Dummy
    direction 0.431183 0.475873 -0.766568
    length 2.49352
    axis 42.8809 47.8308 -3.36039 xyz
  end
  begin
    id 12
    name LeftShoulder1
    direction 0.268187 -0.383402 -0.883786
    length 4.48604
    axis -119.517 0.106469 35.1736 xyz
    dof rx ry rz
  end
  begin
    id 13
    name LeftArm
    direction 0.380567 -0.703221 -0.600541
    length 10.1142
    axis -5.41825 36.2925 7.8293 xyz
    dof rx ry rz
  end
  begin
    id 14
    name LeftForeArm
    direction 0.541071 -0.732356 -0.413396
    length 9.39839
    axis 4.65387 33.7604 7.81644 xyz
    dof rx ry rz
  end
  begin
    id 15
    name LeftHand
    direction 0.847511 -0.389379 -0.360707
    length 3.66142
    axis 7.65593 21.1436 -24.6758 xyz
    dof rx ry rz
  end
  begin
    id 16
    name RightShoulderDummy
    direction -0.692546 0.541855 0.476208
    length 2.49352
    axis 42.8809 47.8308 -3.36039 xyz
  end
  begin
    id 17
    name RightShoulder
    direction -0.870808 -0.316653 0.376065
    length 4.48602
    axis 141.571 51.133 -100.254 xyz
    dof rx ry rz
  end
  begin
    id 18
    name RightArm
    direction 0.366897 -0.87275 0.322015
    length 10.1142
    axis 92.3258 71.2036 138.917 xyz
    dof rx ry rz
  end
  begin
    id 19
    name RightForeArm
    direction 0.702487 -0.694568 0.155197
    length 9.39835
    axis 153.863 41.5092 -176.604 xyz
    dof rx ry rz
  end
  begin
    id 20
    name RightHand
    direction 0.79502 -0.601276 0.0800636
    length 3.66142
    axis 154.247 4.59222 142.9 xyz
    dof rx ry rz
  end
  begin
    id 21
    name LeftUpLegDummy
    direction 0.65628 -0.754516 0.00165102
    length 4.76919
    axis 0 0 0 xyz
  end
  begin
    id 22
    name LeftUpLeg
    direction -0.1277 -0.689368 0.713067
    length 17.9961
    axis -48.3385 -17.8675 0.791927 xyz
    dof rx ry rz
  end
  begin
    id 23
    name LeftLeg
    direction 0.109849 -0.991246 -0.0732378
    length 13.3386
    axis -2.05791 -7.30784 1.72042 xyz
    dof rx ry rz
  end
  begin
    id 24
    name LeftFoot
    direction 0.0448355 -0.272614 0.961078
    length 5.86697
    axis -18.7733 -7.89606 10.2113 xyz
    dof rx ry rz
  end
  begin
    id 25
    name LeftToes
    direction -0.18506 0.293668 0.937823
    length 4.75197
    axis 71.2267 -7.89606 10.2113 xyz
    dof rx ry rz
  end
:hierarchy
  begin
    root RightUpLegDummy SpineDummy LeftUpLegDummy
    RightUpLegDummy RightUpLeg
    RightUpLeg RightLeg
    RightLeg RightFoot
    RightFoot RightToes
    SpineDummy Spine
    Spine Spine1
    Spine1 HEadDummy LeftShoulder1Dummy RightShoulderDummy
    HEadDummy HEad
    LeftShoulder1Dummy LeftShoulder1
    LeftShoulder1 LeftArm
    LeftArm LeftForeArm
    LeftForeArm LeftHand
    RightShoulderDummy RightShoulder
    RightShoulder RightArm
    RightArm RightForeArm
    RightForeArm RightHand
    LeftUpLegDummy LeftUpLeg
    LeftUpLeg LeftLeg
    LeftLeg LeftFoot
    LeftFoot LeftToes
  end

:SAMPLES-PER-SECOND 30
:FULLY-SPECIFIED
:DEGREES
640
root  15.6467 36.1336 -5.30353 -2.57642 -38.9218 -0.223329
RightUpLeg  28.3924 11.4635 -1.1904
RightLeg  -72.8333 -15.6306 3.80332
RightFoot  16.0192 -3.25434 -1.92585
RightToes  -1.27222e-014 -6.36111e-015 6.36111e-015
Spine  -28.3178 -15.4004 -15.3482
Spine1  10.2708 -9.61208 38.9091
HEad  50.4067 -71.0739 -34.2822
LeftShoulder1  6.36111e-015 -1.33558e-015 6.49777e-015
LeftArm  21.8305 1.70867 -34.7572
LeftForeArm  -10.0878 -25.6445 0.98794
LeftHand  0.505314 1.64557 -1.3657
RightShoulder  -4.77083e-015 -6.36111e-015 -3.18055e-015
RightArm  48.9008 14.6011 26.6356
RightForeArm  -7.50286 -6.35185 -6.14168
RightHand  1.515 -1.13496 -9.29538
LeftUpLeg  14.8036 11.8187 13.7633
LeftLeg  3.04316 -11.4877 -1.82246
LeftFoot  0.414848 4.1544 -13.7701
LeftToes  1.27222e-014 -5.20697e-012 1.80337e-011
641
root  15.7322 36.3071 -4.12143 -2.979 -40.7799 0.896388
RightUpLeg  22.5105 15.2054 -1.55326
RightLeg  -64.044 -17.9653 4.84955
RightFoot  29.4726 -1.68778 -8.88752
RightToes  -1.27222e-014 -6.36111e-015 6.36111e-015
Spine  -27.123 -15.5689 -17.3487
Spine1  10.0945 -9.10376 38.7629
HEad  54.2893 -71.5522 -37.8516
LeftShoulder1  6.36111e-015 -1.33558e-015 6.49777e-015
LeftArm  25.469 -3.3038 -40.6028
LeftForeArm  -10.6238 -25.9473 1.159
LeftHand  0.480469 1.61055 -1.48239
RightShoulder  -4.77083e-015 -6.36111e-015 -3.18055e-015
RightArm  46.5992 15.186 26.183
RightForeArm  -4.01995 -2.45467 0.0299634
RightHand  1.49664 -1.48446 -8.56031
LeftUpLeg  16.2508 14.0417 13.0192
LeftLeg  3.02006 -10.0532 -1.5548
LeftFoot  -1.86886 3.90932 -13.9301
LeftToes  1.27222e-014 -5.20697e-012 1.80337e-011
642
root  15.7929 36.4395 -3.02541 -3.58334 -41.6097 2.12084
RightUpLeg  16.7359 17.8512 -1.80917
RightLeg  -56.3591 -20.16 5.26133
RightFoot  38.223 1.1222 -14.2025
RightToes  -1.27222e-014 -6.36111e-015 6.36111e-015
Spine  -25.2764 -16.6113 -19.3026
Spine1  8.7295 -9.53255 39.1936
HEad  54.6262 -70.4339 -39.0007
LeftShoulder1  6.36111e-015 -1.33558e-015 6.49777e-015
LeftArm  29.8644 -7.12745 -44.9152
LeftForeArm  -11.4399 -30.872 2.81443
LeftHand  0.54041 1.72325 -1.30769
RightShoulder  -4.77083e-015 -6.36111e-015 -3.18055e-015
RightArm  43.8543 15.9064 26.4147
RightForeArm  -0.142526 1.56695 6.10559
RightHand  1.19079 -1.40043 -6.59812
LeftUpLeg  17.5476 16.5214 12.0905
LeftLeg  3.21979 -9.96508 -1.52386
LeftFoot  -3.66794 3.63841 -13.7714
LeftToes  1.27222e-014 -5.20697e-012 1.80337e-011
643
root  15.789 36.7077 -1.86758 -4.24667 -40.6839 2.61795
RightUpLeg  12.6148 18.0739 -2.03691
RightLeg  -50.5404 -20.8338 4.33128
RightFoot  38.2046 2.05771 -15.2299
RightToes  -1.27222e-014 -6.36111e-015 6.36111e-015
Spine  -23.983 -17.6033 -19.9736
Spine1  7.29515 -10.46 40.6884
HEad  53.6626 -69.5761 -39.0539
LeftShoulder1  6.36111e-015 -1.33558e-015 6.49777e-015
LeftArm  33.2222 -10.2025 -47.6176
LeftForeArm  -13.7431 -36.6134 5.64585
LeftHand  0.545265 1.72973 -1.28385
RightShoulder  -4.77083e-015 -6.36111e-015 -3.18055e-015
RightArm  41.7953 16.0426 27.259
RightForeArm  2.92453 3.97991 10.2993
RightHand  0.945159 -1.44522 -4.82634
LeftUpLeg  19.799 18.2486 10.7563
LeftLeg  2.2149 -10.5443 -1.5451
LeftFoot  -4.55448 3.05234 -11.9108
LeftToes  1.27222e-014 -5.20697e-012 1.80337e-011
644
root  15.7151 37.0535 -0.639846 -4.62256 -39.2361 2.6408
RightUpLeg  9.20887 17.17 -1.95186
RightLeg  -47.0423 -20.093 2.87793
RightFoot  33.9942 1.23978 -13.5414
RightToes  -1.27222e-014 -6.36111e-015 6.36111e-015
Spine  -24.8005 -17.5806 -19.0386
Spine1  7.96503 -10.9304 40.995
HEad  54.1764 -70.9427 -39.4579
LeftShoulder1  6.36111e-015 -1.33558e-015 6.49777e-015
LeftArm  34.89 -14.3337 -49.7197
LeftForeArm  -17.5504 -40.3265 8.73882
LeftHand  0.279528 1.21744 -2.03963
RightShoulder  -4.77083e-015 -6.36111e-015 -3.18055e-015
RightArm  38.9708 14.6078 25.7635
RightForeArm  5.80027 6.05216 13.2306
RightHand  1.0099 -1.96245 -4.51127
LeftUpLeg  22.6379 19.3078 9.51505
LeftLeg  0.106282 -11.0043 -1.45899
LeftFoot  -5.35485 2.64072 -10.593
LeftToes  1.27222e-014 -5.20697e-012 1.80337e-011
645
root  15.5954 37.3513 0.588281 -4.73224 -37.9637 2.78765
RightUpLeg  5.63779 16.2552 -1.4972
RightLeg  -46.3972 -19.489 2.26267
RightFoot  31.2644 0.673487 -12.2913
RightToes  -1.27222e-014 -6.36111e-015 6.36111e-015
Spine  -26.8458 -17.2361 -17.9506
Spine1  9.66711 -11.0345 40.6359
HEad  56.9937 -73.4023 -41.1644
LeftShoulder1  6.36111e-015 -1.33558e-015 6.49777e-015
LeftArm  34.7943 -18.4976 -51.0715
LeftForeArm  -22.7924 -42.6828 12.1472
LeftHand  -0.145302 0.308914 -3.06435
RightShoulder  -4.77083e-015 -6.36111e-015 -3.18055e-015
RightArm  37.1015 12.8173 24.2067
RightForeArm  7.78037 7.4378 14.9711
RightHand  1.22531 -2.47624 -5.2041
LeftUpLeg  25.3314 20.3048 8.46131
LeftLeg  -2.05911 -11.8413 -1.36893
LeftFoot  -6.26393 2.58232 -10.7084
LeftToes  1.27222e-014 -5.20697e-012 1.80337e-011
646
root  15.458 37.5953 1.79453 -4.89664 -36.5743 2.98829
RightUpLeg  2.41892 15.1258 -0.72475
RightLeg  -48.3086 -19.2664 2.45037
RightFoot  29.9176 1.22567 -12.6933
RightToes  -1.27222e-014 -6.36111e-015 6.36111e-015
Spine  -27.7224 -17.7961 -18.011
Spine1  9.18041 -11.525 42.2828
HEad  60.51 -74.1327 -43.8428
LeftShoulder1  6.36111e-015 -1.33558e-015 6.49777e-015
LeftArm  33.4722 -20.7229 -51.2575
LeftForeArm  -30.5644 -45.0954 17.2425
LeftHand  -0.52368 -0.610254 -3.67493
RightShoulder  -4.77083e-015 -6.36111e-015 -3.18055e-015
RightArm  36.9969 11.9203 25.1662
RightForeArm  8.93131 8.91416 15.2446
RightHand  1.31056 -2.61128 -5.56418
LeftUpLeg  28.1163 21.3422 7.48535
LeftLeg  -4.14342 -13.1623 -1.25163
LeftFoot  -6.85003 2.43927 -10.3344
LeftToes  1.27222e-014 -5.20697e-012 1.80337e-011
647
root  15.2927 37.8046 3.00114 -5.1842 -34.9829 2.96208
RightUpLeg  -0.0596239 13.5106 0.205208
RightLeg  -52.2426 -18.783 2.81138
RightFoot  27.7999 1.5902 -12.7127
RightToes  -1.27222e-014 -6.36111e-015 6.36111e-015
Spine  -27.2647 -19.0097 -18.6882
Spine1  6.58022 -12.33 45.5466
HEad  62.2327 -73.0228 -45.5183
LeftShoulder1  6.36111e-015 -1.33558e-015 6.49777e-015
LeftArm  32.0143 -22.1991 -51.2825
LeftForeArm  -41.3608 -47.3639 24.7612
LeftHand  -0.878151 -1.51676 -4.15573
RightShoulder  -4.77083e-015 -6.36111e-015 -3.18055e-015
RightArm  37.098 11.2998 27.3758
RightForeArm  10.3126 10.8694 15.4045
RightHand  1.22351 -2.49032 -5.17232
LeftUpLeg  31.2943 22.2087 6.7584
LeftLeg  -6.41229 -14.3574 -1.02507
LeftFoot  -7.29527 2.04144 -8.77327
LeftToes  1.27222e-014 -5.20697e-012 1.80337e-011
648
root  15.0894 37.9684 4.21084 -5.25754 -33.4657 2.75291
RightUpLeg  -2.26686 11.5598 1.20874
RightLeg  -58.2126 -18.4949 3.90125
RightFoot  25.7548 1.13628 -11.6406
RightToes  -1.27222e-014 -6.36111e-015 6.36111e-015
Spine  -27.9398 -19.5608 -18.3492
Spine1  5.31937 -12.823 47.4186
HEad  62.1052 -72.6542 -45.5831
LeftShoulder1  6.36111e-015 -1.33558e-015 6.49777e-015
LeftArm  30.7068 -26.0533 -52.4112
LeftForeArm  -53.5819 -48.4464 33.4463
LeftHand  -1.3208 -2.63171 -5.06153
RightShoulder  -4.77083e-015 -6.36111e-015 -3.18055e-015
RightArm  35.3031 9.9566 27.2916
RightForeArm  12.681 13.3504 16.5286
RightHand  1.08094 -2.29018 -4.52019
LeftUpLeg  34.4788 22.8487 6.39458
LeftLeg  -8.75956 -15.4553 -0.705804
LeftFoot  -7.77244 1.71749 -7.49081
LeftToes  1.27222e-014 -5.20697e-012 1.80337e-011
649
root  14.8669 38.0811 5.39549 -5.09143 -32.3014 2.69042
RightUpLeg  -4.27651 9.74369 2.42302
RightLeg  -66.0529 -18.2146 5.93732
RightFoot  25.0429 1.3887 -11.8207
RightToes  -1.27222e-014 -6.36111e-015 6.36111e-015
Spine  -30.543 -19.24 -16.9412
Spine1  6.67391 -12.9473 47.0795
HEad  60.9126 -73.9345 -44.4402
LeftShoulder1  6.36111e-015 -1.33558e-015 6.49777e-015
LeftArm  29.1043 -32.6328 -54.5278
LeftForeArm  -64.8699 -47.8892 40.6484
LeftHand  -1.83988 -4.00516 -6.18078
RightShoulder  -4.77083e-015 -6.36111e-015 -3.18055e-015
RightArm  32.4642 8.46828 25.2847
RightForeArm  14.7621 15.0683 17.929
RightHand  0.965665 -2.18023 -3.90853
LeftUpLeg  37.3716 23.556 6.21401
LeftLeg  -11.0348 -16.7915 -0.29375
LeftFoot  -7.88596 1.54559 -6.75194
LeftToes  1.27222e-014 -5.20697e-012 1.80337e-011
650
root  14.6386 38.1806 6.56016 -4.92438 -31.3343 2.76377
RightUpLeg  -5.56677 8.1799 3.88741
RightLeg  -74.8602 -16.7013 6.97798
RightFoot  25.5933 2.92609 -14.0687
RightToes  -1.27222e-014 -6.36111e-015 6.36111e-015
Spine  -32.9056 -19.0989 -15.8119
Spine1  7.9101 -13.1087 46.9584
HEad  59.1551 -74.9832 -42.7538
LeftShoulder1  6.36111e-015 -1.33558e-015 6.49777e-015
LeftArm  26.7967 -39.1751 -56.4915
LeftForeArm  -73.8369 -46.2559 44.3987
LeftHand  -2.34189 -5.43733 -7.05274
RightShoulder  -4.77083e-015 -6.36111e-015 -3.18055e-015
RightArm  30.1965 7.64256 24.2061
RightForeArm  15.7264 15.7539 18.6573
RightHand  0.90991 -2.30731 -3.36509
LeftUpLeg  40.303 24.3913 6.0688
LeftLeg  -13.6214 -17.999 0.258218
LeftFoot  -7.50723 1.25788 -5.38038
LeftToes  1.27222e-014 -5.20697e-012 1.80337e-011
651
root  14.4007 38.326 7.74376 -4.61526 -30.371 2.45078
RightUpLeg  -5.96958 6.26193 5.58638
RightLeg  -84.4121 -14.3216 6.33652
RightFoot  27.477 4.09053 -15.9851
RightToes  -1.27222e-014 -6.36111e-015 6.36111e-015
Spine  -33.9636 -19.369 -15.0262
Spine1  7.29077 -13.5418 48.3601
HEad  58.1607 -74.7479 -41.9295
LeftShoulder1  6.36111e-015 -1.33558e-015 6.49777e-015
LeftArm  23.8604 -44.0553 -57.8878
LeftForeArm  -79.9718 -44.6174 44.7633
LeftHand  -2.83275 -6.90878 -7.87103
RightShoulder  -4.77083e-015 -6.36111e-015 -3.18055e-015
RightArm  29.0673 7.33355 25.1554
RightForeArm  15.8878 15.9361 18.7219
RightHand  0.91475 -2.53339 -3.09748
LeftUpLeg  43.6855 24.8792 6.28054
LeftLeg  -17.0469 -18.7087 0.882557
LeftFoot  -6.76877 0.915677 -3.76226
LeftToes  1.27222e-014 -5.20697e-012 1.80337e-011
